<svg width="40" height="40" viewBox="0 0 24 24" fill="none" xmlns="http://www.w3.org/2000/svg">
<path d="M13.983 11.078h3.119v-3.119h-3.119v3.119zm0 3.119h3.119v-3.119h-3.119v3.119zm-3.119 0h3.119v-3.119h-3.119v3.119zm-3.119 0h3.119v-3.119H7.745v3.119zm-3.119 0h3.119v-3.119H4.626v3.119zm-3.119 0h3.119v-3.119H1.507v3.119zm3.119-3.119h3.119V4.84H4.626v3.119zm3.119-3.119h3.119V4.84H7.745v3.119zm3.119-3.119h3.119V4.84h-3.119v3.119zm3.119-3.119h3.119V4.84h-3.119v3.119zm3.119-3.119h3.119V4.84h-3.119v3.119z" fill="#2496ed"/>
<path d="M0 0h24v24H0z" fill="none"/>
</svg>